PLZ SEED MY TORRENTS PLZ

General:

Complete name                 : Angels and Demons [Extended Cut] (2009) BRRip 720P (Hindi) (6CH-Ac3) BY [-=R@J=-].mkv
Format                           : Matroska
File size                        : 1.91 GiB
Duration                         : 2h 26mn
Overall bit rate                 : 1 868 Kbps
Movie name                       : 720p BY !-=[-=R@J=-]=-!
Encoded date                     : UTC 2011-08-18 08:09:20
Writing application              : mkvmerge v4.7.0 ('Just Like You Imagined') built on Apr 21 2011 01:13:14
Writing library                  : libebml v1.2.0 + libmatroska v1.1.0
Format                           : Matroska
File size                        : 1.91 GiB
Duration                         : 2h 26mn
Overall bit rate                 : 2 186 Kbps


Video:
ID                               : 1
Format                           : AVC
Format/Info                      : Advanced Video Codec
Format profile                   : High@L4.1
Format settings, CABAC           : Yes
Format settings, ReFrames        : 6 frames
Muxing mode                      : Header stripping
Codec ID                         : V_MPEG4/ISO/AVC
Duration                         : 2h 26mn
Bit rate                         : 1 550 Kbps
Width                            : 1 280 pixels
Height                           : 534 pixels
Display aspect ratio             : 2.40:1
Frame rate                       : 23.976 fps
Color space                      : YUV
Chroma subsampling               : 4:2:0
Bit depth                        : 8 bits
Scan type                        : Progressive
Bits/(Pixel*Frame)               : 0.095
Stream size                      : 1.55 GiB (81%)
Writing library                  : x264 core 115 r1995 c1e60b9
Encoding settings                : cabac=1 / ref=6 / deblock=1:-3:-2 / analyse=0x3:0x133 / me=umh / subme=9 / psy=1 / psy_rd=1.00:0.25 / mixed_ref=0 / me_range=32 / chroma_me=1 / trellis=2 / 8x8dct=1 / cqm=0 / deadzone=6,6 / fast_pskip=0 / chroma_qp_offset=-8 / threads=12 / sliced_threads=0 / slices=4 / nr=0 / decimate=0 / interlaced=0 / bluray_compat=0 / constrained_intra=0 / bframes=3 / b_pyramid=2 / b_adapt=2 / b_bias=0 / direct=1 / weightb=1 / open_gop=0 / weightp=2 / keyint=250 / keyint_min=23 / scenecut=40 / intra_refresh=0 / rc_lookahead=40 / rc=2pass / mbtree=1 / bitrate=1550 / ratetol=1.0 / qcomp=0.60 / qpmin=10 / qpmax=51 / qpstep=4 / cplxblur=20.0 / qblur=0.5 / vbv_maxrate=30000 / vbv_bufsize=40000 / nal_hrd=none / ip_ratio=1.10 / aq=1:1.00
Language                         : English

Audio:
ID                               : 2
Format                           : AC-3
Format/Info                      : Audio Coding 3
Mode extension                   : CM (complete main)
Muxing mode                      : Header stripping
Codec ID                         : A_AC3
Duration                         : 2h 26mn
Bit rate mode                    : Constant
Bit rate                         : 320 Kbps
Channel(s)                       : 6 channels
Channel positions                : Front: L C R, Side: L R, LFE
Sampling rate                    : 48.0 KHz
Bit depth                        : 16 bits
Compression mode                 : Lossy
Stream size                      : 336 MiB (17%)
Title                            : BY [-=R@J=-] (6CH)
Language                         : Hindi

